<?xml version="1.0" encoding="UTF-8" standalone="no"?>
<svg xmlns:xlink="http://www.w3.org/1999/xlink" height="31.15px" width="63.0px" xmlns="http://www.w3.org/2000/svg">
  <g transform="matrix(1.0, 0.0, 0.0, 1.0, 31.5, 15.55)">
    <path d="M-31.5 -8.75 L-31.5 -4.05 -24.85 -4.05 -24.85 -6.2 Q-24.8 -7.35 -24.0 -8.15 -23.1 -9.05 -21.8 -9.05 L-12.85 -9.05 Q-11.55 -9.05 -10.65 -8.15 -9.85 -7.35 -9.8 -6.2 L-9.8 -5.35 Q-9.85 -4.25 -10.65 -3.45 -11.55 -2.55 -12.85 -2.55 L-24.7 -1.35 Q-27.5 -1.3 -29.5 0.7 -31.5 2.7 -31.5 5.5 L-31.5 15.6 24.8 15.6 Q27.5 15.65 29.5 13.65 31.5 11.65 31.5 8.9 L31.5 -8.75 Q31.5 -11.55 29.5 -13.55 27.5 -15.55 24.7 -15.55 L-1.25 -15.55 -1.25 6.85 5.9 6.85 5.9 -8.15 20.9 -8.15 Q22.4 -8.15 23.3 -7.25 24.1 -6.45 24.15 -5.3 L24.15 6.65 Q24.0 7.7 23.2 8.5 22.3 9.4 20.7 9.5 L-24.85 9.5 -24.85 7.95 Q-24.8 6.8 -24.0 6.0 -23.1 5.1 -21.65 5.05 L-9.25 4.3 Q-6.4 4.25 -4.7 2.2 -3.0 0.15 -3.15 -3.15 L-3.15 -8.75 Q-3.15 -11.55 -5.15 -13.55 -7.15 -15.55 -9.95 -15.55 L-24.7 -15.55 Q-27.5 -15.55 -29.5 -13.55 -31.5 -11.55 -31.5 -8.75" fill="#f9a71b" fill-rule="evenodd" stroke="none">
      <animate attributeName="fill" dur="2s" repeatCount="indefinite" values="#f9a71b;#1f3566"/>
      <animate attributeName="fill-opacity" dur="2s" repeatCount="indefinite" values="1.0;1.0"/>
      <animate attributeName="d" dur="2s" repeatCount="indefinite" values="M-31.5 -8.75 L-31.5 -4.05 -24.85 -4.05 -24.85 -6.2 Q-24.8 -7.35 -24.0 -8.15 -23.1 -9.05 -21.8 -9.05 L-12.85 -9.05 Q-11.55 -9.05 -10.65 -8.15 -9.85 -7.35 -9.8 -6.2 L-9.8 -5.35 Q-9.85 -4.25 -10.65 -3.45 -11.55 -2.55 -12.85 -2.55 L-24.7 -1.35 Q-27.5 -1.3 -29.5 0.7 -31.5 2.7 -31.5 5.5 L-31.5 15.6 24.8 15.6 Q27.5 15.65 29.5 13.65 31.5 11.65 31.5 8.9 L31.5 -8.75 Q31.5 -11.55 29.5 -13.55 27.5 -15.55 24.7 -15.55 L-1.25 -15.55 -1.25 6.85 5.9 6.85 5.9 -8.15 20.9 -8.15 Q22.4 -8.15 23.3 -7.25 24.1 -6.45 24.15 -5.3 L24.15 6.65 Q24.0 7.7 23.2 8.5 22.3 9.4 20.7 9.5 L-24.85 9.5 -24.85 7.95 Q-24.8 6.8 -24.0 6.0 -23.1 5.1 -21.65 5.05 L-9.25 4.3 Q-6.4 4.25 -4.7 2.2 -3.0 0.15 -3.15 -3.15 L-3.15 -8.75 Q-3.15 -11.55 -5.15 -13.55 -7.15 -15.55 -9.95 -15.55 L-24.7 -15.55 Q-27.5 -15.55 -29.5 -13.55 -31.5 -11.55 -31.5 -8.75;M-31.5 -8.75 L-31.5 -4.05 -24.85 -4.05 -24.85 -6.2 Q-24.8 -7.35 -24.0 -8.15 -23.1 -9.05 -21.8 -9.05 L-12.85 -9.05 Q-11.55 -9.05 -10.65 -8.15 -9.85 -7.35 -9.8 -6.2 L-9.8 -5.35 Q-9.85 -4.25 -10.65 -3.45 -11.55 -2.55 -12.85 -2.55 L-24.7 -1.35 Q-27.5 -1.3 -29.5 0.7 -31.5 2.7 -31.5 5.5 L-31.5 15.6 24.8 15.6 Q27.5 15.65 29.5 13.65 31.5 11.65 31.5 8.9 L31.5 -8.75 Q31.5 -11.55 29.5 -13.55 27.5 -15.55 24.7 -15.55 L-1.25 -15.55 -1.25 6.85 5.9 6.85 5.9 -8.15 20.9 -8.15 Q22.4 -8.15 23.3 -7.25 24.1 -6.45 24.15 -5.3 L24.15 6.65 Q24.0 7.7 23.2 8.5 22.3 9.4 20.7 9.5 L-24.85 9.5 -24.85 7.95 Q-24.8 6.8 -24.0 6.0 -23.1 5.1 -21.65 5.05 L-9.25 4.3 Q-6.4 4.25 -4.7 2.2 -3.0 0.15 -3.15 -3.15 L-3.15 -8.75 Q-3.15 -11.55 -5.15 -13.55 -7.15 -15.55 -9.95 -15.55 L-24.7 -15.55 Q-27.5 -15.55 -29.5 -13.55 -31.5 -11.55 -31.5 -8.75"/>
    </path>
    <path d="M-31.5 -8.75 Q-31.5 -11.55 -29.5 -13.55 -27.5 -15.55 -24.7 -15.55 L-9.95 -15.55 Q-7.15 -15.55 -5.15 -13.55 -3.15 -11.55 -3.15 -8.75 L-3.15 -3.15 Q-3.0 0.15 -4.7 2.2 -6.4 4.25 -9.25 4.3 L-21.65 5.05 Q-23.1 5.1 -24.0 6.0 -24.8 6.8 -24.85 7.95 L-24.85 9.5 20.7 9.5 Q22.3 9.4 23.2 8.5 24.0 7.7 24.15 6.65 L24.15 -5.3 Q24.1 -6.45 23.3 -7.25 22.4 -8.15 20.9 -8.15 L5.9 -8.15 5.9 6.85 -1.25 6.85 -1.25 -15.55 24.7 -15.55 Q27.5 -15.55 29.5 -13.55 31.5 -11.55 31.5 -8.75 L31.5 8.9 Q31.5 11.65 29.5 13.65 27.5 15.65 24.8 15.6 L-31.5 15.6 -31.5 5.5 Q-31.5 2.7 -29.5 0.7 -27.5 -1.3 -24.7 -1.35 L-12.85 -2.55 Q-11.55 -2.55 -10.65 -3.45 -9.85 -4.25 -9.8 -5.35 L-9.8 -6.2 Q-9.85 -7.35 -10.65 -8.15 -11.55 -9.05 -12.85 -9.05 L-21.8 -9.05 Q-23.1 -9.05 -24.0 -8.15 -24.8 -7.35 -24.85 -6.2 L-24.85 -4.05 -31.5 -4.05 -31.5 -8.75" fill="none" stroke="#000000" stroke-linecap="round" stroke-linejoin="round" stroke-opacity="0.0" stroke-width="1.0">
      <animate attributeName="stroke" dur="2s" repeatCount="indefinite" values="#000000;#000001"/>
      <animate attributeName="stroke-width" dur="2s" repeatCount="indefinite" values="0.0;0.0"/>
      <animate attributeName="fill-opacity" dur="2s" repeatCount="indefinite" values="0.0;0.0"/>
      <animate attributeName="d" dur="2s" repeatCount="indefinite" values="M-31.5 -8.75 Q-31.5 -11.55 -29.5 -13.55 -27.5 -15.55 -24.7 -15.55 L-9.95 -15.55 Q-7.15 -15.55 -5.15 -13.55 -3.15 -11.55 -3.15 -8.75 L-3.15 -3.15 Q-3.0 0.15 -4.7 2.2 -6.4 4.25 -9.25 4.3 L-21.65 5.05 Q-23.1 5.1 -24.0 6.0 -24.8 6.8 -24.85 7.95 L-24.85 9.5 20.7 9.5 Q22.3 9.4 23.2 8.5 24.0 7.7 24.15 6.65 L24.15 -5.3 Q24.1 -6.45 23.3 -7.25 22.4 -8.15 20.9 -8.15 L5.9 -8.15 5.9 6.85 -1.25 6.85 -1.25 -15.55 24.7 -15.55 Q27.5 -15.55 29.5 -13.55 31.5 -11.55 31.5 -8.75 L31.5 8.9 Q31.5 11.65 29.5 13.65 27.5 15.65 24.8 15.6 L-31.5 15.6 -31.5 5.5 Q-31.5 2.7 -29.5 0.7 -27.5 -1.3 -24.7 -1.35 L-12.85 -2.55 Q-11.55 -2.55 -10.65 -3.45 -9.85 -4.25 -9.8 -5.35 L-9.8 -6.2 Q-9.85 -7.35 -10.65 -8.15 -11.55 -9.05 -12.85 -9.05 L-21.8 -9.05 Q-23.1 -9.05 -24.0 -8.15 -24.8 -7.35 -24.85 -6.2 L-24.85 -4.05 -31.5 -4.05 -31.5 -8.75;M-31.5 -8.75 Q-31.5 -11.55 -29.5 -13.55 -27.5 -15.55 -24.7 -15.55 L-9.95 -15.55 Q-7.15 -15.55 -5.15 -13.55 -3.15 -11.55 -3.15 -8.75 L-3.15 -3.15 Q-3.0 0.15 -4.7 2.2 -6.4 4.25 -9.25 4.3 L-21.65 5.05 Q-23.1 5.1 -24.0 6.0 -24.8 6.8 -24.85 7.95 L-24.85 9.5 20.7 9.5 Q22.3 9.4 23.2 8.5 24.0 7.7 24.15 6.65 L24.15 -5.3 Q24.1 -6.45 23.3 -7.25 22.4 -8.15 20.9 -8.15 L5.9 -8.15 5.9 6.85 -1.25 6.85 -1.25 -15.55 24.7 -15.55 Q27.5 -15.55 29.5 -13.55 31.5 -11.55 31.5 -8.75 L31.5 8.9 Q31.5 11.65 29.5 13.65 27.5 15.65 24.8 15.6 L-31.5 15.6 -31.5 5.5 Q-31.5 2.7 -29.5 0.7 -27.5 -1.3 -24.7 -1.35 L-12.85 -2.55 Q-11.55 -2.55 -10.65 -3.45 -9.85 -4.25 -9.8 -5.35 L-9.8 -6.2 Q-9.85 -7.35 -10.65 -8.15 -11.55 -9.05 -12.85 -9.05 L-21.8 -9.05 Q-23.1 -9.05 -24.0 -8.15 -24.8 -7.35 -24.85 -6.2 L-24.85 -4.05 -31.5 -4.05 -31.5 -8.75"/>
    </path>
  </g>
</svg>
